<svg width="144" height="26" viewBox="0 0 144 26" fill="none" xmlns="http://www.w3.org/2000/svg">
<path d="M135.76 0.299805C137.376 0.299822 138.81 0.605376 140.059 1.21582C141.31 1.82623 142.279 2.69363 142.968 3.81543C143.655 4.9374 144 6.25255 144 7.75879C144 9.26507 143.655 10.5789 142.968 11.7021C142.279 12.824 141.31 13.6913 140.059 14.3018C138.809 14.9122 137.376 15.2187 135.76 15.2188H128.784V0.299805H135.76ZM7.01929 0.000976562C8.40991 0.000981543 9.63689 0.281137 10.697 0.842773H10.698C11.7594 1.40439 12.5804 2.22085 13.1638 3.29395C13.7473 4.36708 14.0388 5.65618 14.0388 7.16113V15.2168H9.86499V11.9141H4.11108V15.2168H0.000732422V7.16113C0.000745847 5.6549 0.292287 4.3658 0.875732 3.29395C1.45918 2.22082 2.28018 1.40441 3.34155 0.842773C4.40297 0.281132 5.62865 0.000976562 7.01929 0.000976562ZM25.2527 0.000976562C27.0093 0.000980831 28.3717 0.565704 29.3416 1.69531H29.3406C30.3105 2.82502 30.7947 4.434 30.7947 6.52246V15.2168H26.6218V6.64941C26.6218 5.5983 26.3863 4.81076 25.9148 4.28516C25.4445 3.75959 24.7876 3.49618 23.9451 3.49609C23.1023 3.49609 22.3706 3.77625 21.8367 4.33789C21.303 4.89953 21.0359 5.74151 21.0359 6.86328V15.2168H16.863V0.299805H20.9109V2.00488C21.9087 0.669719 23.355 0.000976562 25.2527 0.000976562ZM41.8816 3.56055H39.4998V11.9561H41.8816V15.2168H32.9246V11.9561H35.3269V3.56055H32.9246V0.299805H41.8816V3.56055ZM61.3992 0C63.1406 1.34479e-06 64.5011 0.521532 65.4773 1.56641V1.56836C66.4533 2.61193 66.9411 4.12187 66.9412 6.0957V15.2168H62.7683V6.22461C62.7683 5.3301 62.537 4.65085 62.073 4.18945C61.6091 3.72819 60.9912 3.49712 60.2185 3.49707C59.3897 3.49707 58.7321 3.74275 58.2478 4.23242C57.7636 4.72206 57.5213 5.45708 57.5212 6.4375V15.2168H53.3474V6.22461C53.3474 5.3301 53.1332 4.65085 52.7048 4.18945C52.2765 3.7281 51.6889 3.4971 50.9441 3.49707C50.1433 3.49707 49.5041 3.74281 49.0261 4.23242C48.5482 4.72206 48.3084 5.45696 48.3083 6.4375V15.2168H44.1355V0.299805H48.1833V1.96094C48.6333 1.32241 49.2125 0.835066 49.9216 0.500977C50.6309 0.166819 51.4575 0 52.3982 0C53.3388 8.02598e-06 54.215 0.177205 54.9382 0.533203C55.6614 0.887922 56.2481 1.40777 56.698 2.08887C57.2039 1.40641 57.8643 0.887924 58.6804 0.533203C59.4952 0.178561 60.4014 0 61.3992 0ZM79.8591 3.56055H72.4187V6.0752H78.9744V9.22949H72.4187V11.9561H80.1335V15.2168H72.1658C70.0239 15.2168 68.2879 13.4614 68.2878 11.2959V4.2207C68.2878 2.05513 70.0239 0.299838 72.1658 0.299805H79.8591V3.56055ZM86.6091 11.8721H93.6482V15.2168H82.4353V0.299805H86.6091V11.8721ZM102.184 0.000976562C103.575 0.00100814 104.801 0.281337 105.861 0.842773H105.863C106.924 1.4044 107.745 2.22083 108.329 3.29395C108.912 4.36708 109.204 5.65619 109.204 7.16113V15.2168H105.03V11.9141H99.2761V15.2168H95.1658V7.16113C95.1658 5.65491 95.4573 4.36579 96.0408 3.29395C96.6242 2.22085 97.4452 1.40439 98.5066 0.842773C99.568 0.281165 100.794 0.000976562 102.184 0.000976562ZM120.418 0.000976562C122.174 0.00101758 123.537 0.565683 124.507 1.69531H124.506C125.475 2.82501 125.96 4.43405 125.96 6.52246V15.2168H121.787V6.64941C121.787 5.59836 121.551 4.81076 121.08 4.28516C120.61 3.7595 119.952 3.49609 119.109 3.49609C118.267 3.49618 117.536 3.77634 117.002 4.33789C116.468 4.89953 116.201 5.74146 116.201 6.86328V15.2168H112.028V0.299805H116.075V2.00488C117.073 0.669538 118.52 0.000976562 120.418 0.000976562ZM132.958 11.8486H135.593V11.8496C136.857 11.8496 137.872 11.4875 138.638 10.7627C139.404 10.0379 139.788 9.03651 139.788 7.75781C139.788 6.47912 139.405 5.47778 138.638 4.75293C137.872 4.02806 136.857 3.66504 135.593 3.66504H132.958V11.8486ZM6.9978 3.49609C6.12592 3.49609 5.41026 3.77338 4.89038 4.32715C4.37048 4.88108 4.11108 5.7051 4.11108 6.79883V8.65332H9.86499V6.79883C9.86499 5.7051 9.60462 4.88108 9.08472 4.32715C8.56487 3.77337 7.86965 3.49613 6.9978 3.49609ZM102.163 3.49609C101.291 3.49609 100.574 3.77322 100.054 4.32715C99.5346 4.88108 99.2761 5.70519 99.2761 6.79883V8.65332H105.03V6.79883C105.03 5.7051 104.77 4.88108 104.25 4.32715C103.73 3.77335 103.035 3.49617 102.163 3.49609Z" fill="white"/>
<path fill-rule="evenodd" clip-rule="evenodd" d="M127.826 20.9297C127.719 21.0916 127.702 21.1279 127.576 21.498C127.112 22.8424 126.468 23.8538 125.594 24.5928C124.915 25.1697 124.273 25.522 123.051 26C122.818 25.4679 122.568 25.0979 122.051 24.5195C123.122 24.2394 123.765 23.9513 124.408 23.4629C125.06 22.9758 125.453 22.4614 125.782 21.6582H121.918C121.212 21.6582 121.061 21.6679 120.499 21.7129V20.1982C120.9 20.2521 121.186 20.2705 121.934 20.2705H126.415C126.843 20.2705 126.906 20.2618 127.13 20.1719L127.826 20.9297ZM103.119 19.0791C102.985 19.223 102.958 19.268 102.842 19.5479C102.271 20.9012 101.503 21.8129 100.351 22.5352C100.039 22.1291 99.7438 21.8396 99.3523 21.5518C99.2989 22.4898 99.1473 23.1492 98.8347 23.7441C98.522 24.3212 98.0583 24.8374 97.4431 25.2705C97.077 25.5237 96.7729 25.6856 96.1843 25.9658C95.8271 25.2525 95.6844 25.036 95.1658 24.5039C96.1469 24.1878 96.7902 23.7909 97.2097 23.25C97.6381 22.6909 97.7898 22.049 97.7898 20.8486C97.7898 20.5596 97.7806 20.4247 97.7361 20.2256H99.4148C99.3881 20.4055 99.3788 20.4879 99.3699 21.002C99.3698 21.0128 99.3611 21.2288 99.3611 21.3184C99.3966 21.2944 99.4645 21.2579 99.5652 21.21C100.217 20.8759 100.744 20.3349 101.065 19.6758H96.8083C96.1296 19.6758 95.8178 19.6933 95.3894 19.7383V18.1592C95.7999 18.2221 96.1041 18.2402 96.8347 18.2402H101.511C102.011 18.2402 102.073 18.2305 102.279 18.1406L103.119 19.0791ZM119.293 18.3945C119.168 18.6206 119.097 18.7915 118.918 19.2334C118.552 20.1266 118.194 20.8579 117.73 21.6162C118.507 22.2845 118.784 22.5543 119.677 23.5117L118.463 24.793C117.972 24.1427 117.464 23.5834 116.776 22.9434C115.928 24.0538 114.838 24.9652 113.322 25.8135C113.018 25.2725 112.751 24.9382 112.197 24.4512C113.304 23.9191 113.911 23.5221 114.616 22.8809C114.982 22.5467 115.286 22.2307 115.571 21.8799C114.464 21.0318 113.973 20.6885 113.25 20.2734L114.347 19.1807C115.16 19.6587 115.562 19.9388 116.454 20.5967C116.971 19.7575 117.482 18.5395 117.615 17.8262L119.293 18.3945ZM139.6 17.8252C139.565 18.0601 139.565 18.205 139.556 19.1426V20.3789C140.966 20.8389 142.368 21.4798 143.617 22.2559L142.769 23.791C142.028 23.2589 140.994 22.6798 139.958 22.2197C139.69 22.112 139.663 22.1029 139.636 22.085C139.61 22.076 139.592 22.067 139.556 22.04V24.3867C139.556 25.055 139.574 25.5337 139.609 25.7676H137.887V25.7666C137.923 25.3875 137.931 25.1247 137.94 24.3857V19.1328C137.931 18.357 137.931 18.3119 137.878 17.8252H139.6ZM134.959 19.2061C135.396 19.7381 135.602 19.9199 136.27 20.416C135.458 22.1934 134.61 23.2591 133.36 24.0713C132.397 24.7034 131.549 25.0357 129.887 25.4238C129.539 25.5047 129.486 25.5141 129.245 25.5859L128.78 23.8535H128.782C129.692 23.7815 130.63 23.5552 131.469 23.2031C132.593 22.734 133.397 22.0568 134.084 20.9746C134.459 20.3976 134.701 19.9 134.959 19.2061ZM111.473 24.8994C111.081 24.8635 110.858 24.8545 109.921 24.8545H105.253C104.459 24.8545 104.146 24.8635 103.789 24.8994V23.2129C104.323 23.2758 104.45 23.2842 105.279 23.2842H109.893C110.785 23.2842 111.063 23.2758 111.473 23.2129V24.8994ZM129.719 18.249C130.843 18.9173 131.424 19.3326 132.174 20.0176L131.12 21.4248C130.343 20.6035 129.584 20.0079 128.691 19.5195L129.718 18.248L129.719 18.249ZM104.689 18.7266C105.109 18.7805 105.36 18.79 106.082 18.79H109.107C109.892 18.79 110.205 18.7715 110.589 18.7266V20.3789C110.08 20.3429 109.848 20.334 109.125 20.334H106.062C105.401 20.334 105 20.3519 104.688 20.3789V18.7266H104.689ZM141.921 18.3301C142.269 18.7271 142.554 19.1422 142.803 19.6201L141.956 20.0352C141.661 19.4673 141.43 19.1328 141.073 18.7178L141.921 18.3301ZM126.799 19.458C126.459 19.431 126.04 19.4131 125.425 19.4131H122.533C121.828 19.4131 121.632 19.422 121.239 19.458V17.9414C121.587 17.9954 121.918 18.0137 122.551 18.0137H125.398C126.103 18.0137 126.487 17.9954 126.799 17.9414V19.458ZM143.107 17.7891C143.438 18.1502 143.687 18.493 144 19.043L143.178 19.4492C142.866 18.8814 142.617 18.5202 142.304 18.1592L143.107 17.7891Z" fill="white"/>
</svg>
